<svg version="1.0" xmlns="http://www.w3.org/2000/svg" width="303.000000pt" height="496.000000pt" viewBox="0 0 303.000000 496.000000" preserveAspectRatio="xMidYMid meet">
    <g transform="translate(0.000000,496.000000) scale(0.100000,-0.100000)" fill="#000000" stroke="none">
        <path d="M1244 4945 c-534 -78 -981 -400 -1119 -806 -173 -506 83 -1024 636
-1288 203 -97 394 -144 656 -162 189 -12 278 -34 412 -101 121 -60 221 -149
261 -233 87 -180 -71 -404 -344 -491 -214 -67 -413 -54 -613 42 -165 79 -262
201 -271 341 l-4 63 -430 0 -431 0 7 -72 c24 -245 147 -484 346 -672 541 -508
1526 -569 2164 -133 241 165 424 410 487 652 26 104 35 277 20 386 -48 328
-260 627 -550 773 -193 98 -401 151 -971 246 -102 17 -211 42 -243 55 -182 73
-292 194 -304 335 -15 164 148 331 387 396 102 28 302 26 400 -4 233 -73 375
-218 374 -379 l0 -63 424 0 425 0 -7 72 c-44 476 -437 869 -1011 1012 -184 46
-503 60 -701 31z" />
        <path d="M930 458 c-95 -227 -176 -423 -178 -436 l-4 -22 363 0 364 0 225 415
c124 229 226 425 228 435 3 20 -6 20 -410 20 l-414 0 -174 -412z" />
    </g>
</svg>